<svg width="17" height="20" viewBox="0 0 17 20" fill="none" xmlns="http://www.w3.org/2000/svg">
<path fill-rule="evenodd" clip-rule="evenodd" d="M12.3108 4.86817C12.3108 6.80711 10.739 8.37893 8.80002 8.37893C6.86107 8.37893 5.28925 6.80711 5.28925 4.86817C5.28925 2.92923 6.86107 1.3574 8.80002 1.3574C10.739 1.3574 12.3108 2.92923 12.3108 4.86817ZM10.7655 9.26478C12.4448 8.5129 13.6148 6.82716 13.6148 4.86817C13.6148 2.20905 11.4591 0.0534058 8.80002 0.0534058C6.1409 0.0534058 3.98526 2.20905 3.98526 4.86817C3.98526 6.82719 5.15524 8.51295 6.83459 9.26481L3.23327 10.3366C1.53713 10.8414 0.280955 12.4494 0.894624 14.1092C2.08264 17.3226 5.17386 19.6134 8.80012 19.6134C12.4264 19.6134 15.5176 17.3226 16.7056 14.1092C17.3193 12.4494 16.0631 10.8414 14.367 10.3366L10.7655 9.26478ZM14.2201 11.6534L9.94113 10.3799C9.19659 10.1584 8.40364 10.1584 7.6591 10.3799L3.38015 11.6534C2.43663 11.9343 1.80946 12.8761 2.16965 13.7923C3.2095 16.4371 5.78617 18.3094 8.80012 18.3094C11.8141 18.3094 14.3907 16.4371 15.4306 13.7923C15.7908 12.8761 15.1636 11.9343 14.2201 11.6534Z" fill="white"/>
</svg>
