<svg xmlns="http://www.w3.org/2000/svg" viewBox="0 0 18.02 20.08"><defs><style>.cls-1{fill:#fff;}</style></defs><g id="Layer_2" data-name="Layer 2"><g id="Layer_1-2" data-name="Layer 1"><path class="cls-1" d="M18,14.9a5.35,5.35,0,0,0-.19-.92,3.75,3.75,0,0,0-.16-.43,4.68,4.68,0,0,0-1-1.49l-.33-.31a4.89,4.89,0,0,0-.6-.41,4.43,4.43,0,0,0-1-.45,5.82,5.82,0,0,0-.85-.18,4.89,4.89,0,0,0-.54,0h0a4.64,4.64,0,0,0-1.83.37,4.73,4.73,0,0,0-.8.43l-.36.27c-.11.1-.23.2-.33.31a3.13,3.13,0,0,0-.31.33,4.89,4.89,0,0,0-.41.6,4.43,4.43,0,0,0-.45,1,5.82,5.82,0,0,0-.18.85,4.89,4.89,0,0,0,0,.54,5.25,5.25,0,0,0,0,.56A4.64,4.64,0,0,0,10,18.7a4.49,4.49,0,0,0,1.08.81l.41.2a4.49,4.49,0,0,0,1.8.37h0a4.7,4.7,0,0,0,.92-.09l.44-.11.43-.16a1.59,1.59,0,0,0,.27-.12,4.53,4.53,0,0,0,1.25-.89,4.76,4.76,0,0,0,1.07-1.63,3,3,0,0,0,.11-.32,3.69,3.69,0,0,0,.11-.45,4.08,4.08,0,0,0,.1-.93C18,15.22,18,15.06,18,14.9Zm-4.28,2.73a.89.89,0,0,1-.59.35H13a.86.86,0,0,1-.53-.19l-2-1.55a.87.87,0,1,1,1.07-1.38l1.32,1,1.62-2.16a.87.87,0,1,1,1.4,1Z"/><path class="cls-1" d="M18,14.9a5.56,5.56,0,0,0-.19-.92,3.75,3.75,0,0,0-.16-.43,4.62,4.62,0,0,0-1-1.49l-.33-.31a4.89,4.89,0,0,0-.6-.41,4.43,4.43,0,0,0-1-.45,5.82,5.82,0,0,0-.85-.18,4.89,4.89,0,0,0-.54,0h0a4.64,4.64,0,0,0-1.83.37,4.11,4.11,0,0,0-.8.43l-.36.27c-.11.1-.23.2-.33.31a3.13,3.13,0,0,0-.31.33,4.89,4.89,0,0,0-.41.6,4.43,4.43,0,0,0-.45,1,5.82,5.82,0,0,0-.18.85,4.89,4.89,0,0,0,0,.54,5.25,5.25,0,0,0,0,.56,4.74,4.74,0,0,0,2.43,3.58l.41.2a4.86,4.86,0,0,0,1.8.37h0a4.7,4.7,0,0,0,.92-.09l.44-.11.43-.16a1.59,1.59,0,0,0,.27-.12,4.53,4.53,0,0,0,1.25-.89,4.76,4.76,0,0,0,1.07-1.63,3,3,0,0,0,.11-.32,3.69,3.69,0,0,0,.11-.45,4.73,4.73,0,0,0,.1-.93C18,15.22,18,15.06,18,14.9Zm-4.28,2.73a.89.89,0,0,1-.59.35H13a.86.86,0,0,1-.53-.19l-2-1.55a.87.87,0,1,1,1.07-1.38l1.32,1,1.62-2.16a.87.87,0,1,1,1.4,1Z"/><path class="cls-1" d="M2.63,16a2.63,2.63,0,0,1-1.85-.77A2.59,2.59,0,0,1,0,13.32V2.64A2.66,2.66,0,0,1,2.64,0h8.55a2.65,2.65,0,0,1,2.66,2.64V9a.5.5,0,0,1-1,0V2.64A1.66,1.66,0,0,0,11.2,1H2.64A1.65,1.65,0,0,0,1,2.64V13.32a1.63,1.63,0,0,0,.48,1.16A1.67,1.67,0,0,0,2.63,15H7.17a.5.5,0,0,1,0,1H2.63Z"/><path class="cls-1" d="M8.35,11.68H3.7a.5.5,0,1,1,0-1H8.35a.5.5,0,1,1,0,1Z"/><path class="cls-1" d="M10.11,8.5H3.7a.5.5,0,1,1,0-1h6.41a.5.5,0,0,1,0,1Z"/><path class="cls-1" d="M10.11,5.27H3.7a.5.5,0,1,1,0-1h6.41a.5.5,0,0,1,0,1Z"/></g></g></svg>