<svg xmlns="http://www.w3.org/2000/svg" viewBox="0 0 18.01 20.07"><defs><style>.cls-1{fill:none;stroke:#fff;stroke-linecap:round;stroke-linejoin:round;}</style></defs><g id="Layer_2" data-name="Layer 2"><g id="Layer_1-2" data-name="Layer 1"><path class="cls-1" d="M3.7,4.77h6.41M3.7,8h6.41M3.7,11.18H8.35m5-2.2V2.64A2.15,2.15,0,0,0,11.18.5H2.64A2.15,2.15,0,0,0,.5,2.64V13.32a2.15,2.15,0,0,0,.63,1.51,2.13,2.13,0,0,0,1.51.62H7.17m8-1.21-2.15,2.87L11,15.56m2.33-4.38a4.2,4.2,0,1,0,4.19,4.2A4.2,4.2,0,0,0,13.32,11.18Z"/></g></g></svg>