<svg width="15" height="17" viewBox="0 0 15 17" fill="none" xmlns="http://www.w3.org/2000/svg">
<path d="M4.67931 5.27241H11.0879M4.67931 8.47672H11.0879M4.67931 11.681H11.0879M14.2922 13.8172V3.13621C14.2922 2.56965 14.0672 2.0263 13.6666 1.62568C13.2659 1.22506 12.7226 1 12.156 1H3.61121C3.04465 1 2.5013 1.22506 2.10069 1.62568C1.70007 2.0263 1.47501 2.56965 1.47501 3.13621V13.8172C1.47501 14.3838 1.70007 14.9271 2.10069 15.3278C2.5013 15.7284 3.04465 15.9534 3.61121 15.9534H12.156C12.7226 15.9534 13.2659 15.7284 13.6666 15.3278C14.0672 14.9271 14.2922 14.3838 14.2922 13.8172V13.8172Z" stroke="white" stroke-linecap="round" stroke-linejoin="round"/>
<path d="M4.67931 5.27241H11.0879M4.67931 8.47672H11.0879M4.67931 11.681H11.0879M14.2922 13.8172V3.13621C14.2922 2.56965 14.0672 2.0263 13.6666 1.62568C13.2659 1.22506 12.7226 1 12.156 1H3.61121C3.04465 1 2.5013 1.22506 2.10069 1.62568C1.70007 2.0263 1.47501 2.56965 1.47501 3.13621V13.8172C1.47501 14.3838 1.70007 14.9271 2.10069 15.3278C2.5013 15.7284 3.04465 15.9534 3.61121 15.9534H12.156C12.7226 15.9534 13.2659 15.7284 13.6666 15.3278C14.0672 14.9271 14.2922 14.3838 14.2922 13.8172V13.8172Z" stroke="white" stroke-linecap="round" stroke-linejoin="round"/>
</svg>
